<svg width="43" height="44" viewBox="0 0 43 44" fill="none" xmlns="http://www.w3.org/2000/svg">
<path d="M21.5046 41.4193C32.1418 41.4193 40.765 32.7961 40.765 22.1589C40.765 11.5216 32.1418 2.89844 21.5046 2.89844C10.8673 2.89844 2.24414 11.5216 2.24414 22.1589C2.24414 32.7961 10.8673 41.4193 21.5046 41.4193Z" fill="#48AFFF" stroke="#008CF9" stroke-width="0.895833" stroke-linecap="round" stroke-linejoin="round"/>
<path d="M17.9285 18.1446C17.921 17.6705 18.0079 17.1997 18.1842 16.7595C18.3604 16.3193 18.6225 15.9186 18.9551 15.5807C19.2877 15.2427 19.6842 14.9744 20.1216 14.7912C20.5589 14.608 21.0283 14.5137 21.5025 14.5137C21.9766 14.5137 22.446 14.608 22.8834 14.7912C23.3207 14.9744 23.7172 15.2427 24.0499 15.5807C24.3825 15.9186 24.6445 16.3193 24.8208 16.7595C24.997 17.1997 25.0839 17.6705 25.0764 18.1446C25.0763 18.7708 24.9118 19.3859 24.5992 19.9285C24.2867 20.471 23.8371 20.922 23.2955 21.2362C25.2699 21.9752 27.3097 24.4934 27.3088 26.6335H15.6943C15.6943 24.4925 17.735 21.9752 19.7086 21.2362C19.1669 20.922 18.7174 20.471 18.4048 19.9285C18.0923 19.3859 17.9286 18.7708 17.9285 18.1446Z" fill="#EF4A7B" stroke="white" stroke-width="0.895833" stroke-linecap="round" stroke-linejoin="round"/>
<path d="M2.24414 22.1562C4.2311 21.5802 4.47656 24.1602 4.64945 25.5756C4.99704 27.2061 6.68299 27.2419 6.36408 25.3642C5.87316 23.0449 5.33924 20.6996 6.48322 18.4977C7.25991 17.2775 9.23343 17.1799 8.32864 19.7912C6.60147 24.7739 9.10891 28.5874 10.6757 28.1135C12.987 27.4166 8.06258 22.0048 12.2094 13.8366C14.0906 10.1288 16.8937 12.2474 15.6091 14.0266C12.5462 18.2683 9.54339 24.9692 16.3714 29.5737C17.898 30.5967 19.6968 31.1371 21.5344 31.1248C23.372 31.1125 25.1635 30.5481 26.6762 29.5048C34.3956 24.1638 29.1263 16.2043 27.4072 13.9755C26.0984 12.2788 28.9032 10.136 30.7988 13.8357C34.9492 21.9395 30.0768 27.3637 32.2796 28.0938C33.9011 28.6313 36.4067 24.7748 34.6805 19.7912C33.7757 17.179 35.7483 17.2775 36.5259 18.4977C37.7684 20.6477 37.0634 23.0843 36.6441 25.3642C36.3252 27.2419 38.0112 27.2061 38.3588 25.5756C38.5299 23.9067 39.0701 21.2613 40.7641 22.1562" stroke="white" stroke-width="0.895833" stroke-linecap="round" stroke-linejoin="round"/>
</svg>
