<svg width="47" height="49" viewBox="0 0 47 49" fill="none" xmlns="http://www.w3.org/2000/svg">
<g clip-path="url(#clip0_8464_42340)">
<g clip-path="url(#clip1_8464_42340)">
<path d="M28.9729 12.1966L33.267 10.6608L34.614 14.4271L30.3199 15.9629L28.9729 12.1966Z" fill="#F9EE4A"/>
<path d="M35.7061 13.7312L40.0002 12.1954L41.3473 15.9617L40.0002 18.6595L38.0002 19.6595L37.0532 17.4975L35.7061 13.7312Z" fill="#F9EE4A"/>
<path d="M4.99902 13.7305L9.29314 12.1947L10.6402 15.961L9.29314 18.6588L7.29314 19.6588L6.34608 17.4968L4.99902 13.7305Z" fill="#F9EE4A"/>
<path d="M13.5624 10.6596L17.9042 13.2747L16.133 16.2154L11.7912 13.6003L13.5624 10.6596Z" fill="#008CF9"/>
<path d="M30.9548 10.2962L33.6834 10.6235L33.6834 12.6412L33.5254 15.852L29.1834 14.6226L30.9548 10.2962Z" fill="#008CF9"/>
<path fill-rule="evenodd" clip-rule="evenodd" d="M42.5809 12.1646C41.4933 10.7612 40.0194 9.70749 38.3406 9.13221V9.14161C36.6899 8.56445 34.9021 8.50711 33.2166 8.97617C31.5049 9.46685 29.9943 10.4905 28.9049 11.8986C27.6716 13.5258 26.8275 15.4142 26.4374 17.4183C26.2907 18.1177 26.1826 18.8245 26.1131 19.5352C26.0388 20.2759 25.9899 21.0552 25.9899 21.8993V36.2146V36.6009V37.9188C25.9157 41.487 32.1845 41.6816 32.0839 37.8737V36.6009V36.2146V23.1974C33.7844 23.9466 35.6804 24.1299 37.4936 23.7201C39.5579 23.3018 41.3796 22.0967 42.5715 20.3596C42.5969 20.3173 42.6176 20.2731 42.6336 20.2261C42.8479 19.6583 42.9579 17.9268 42.9579 16.2358C42.9644 14.3783 42.8375 12.4889 42.5809 12.1646ZM33.2918 12.0283C32.7955 12.2868 32.3453 12.6252 31.957 13.0285C31.5011 13.4853 31.1082 14.0005 30.7886 14.5607C30.6655 14.776 30.3919 14.8512 30.1767 14.728C29.9614 14.6049 29.8862 14.3313 30.0094 14.1161C30.3656 13.49 30.8027 12.9119 31.3084 12.3987C31.769 11.924 32.3048 11.5264 32.8933 11.2237C33.1161 11.1156 33.384 11.2068 33.4939 11.4286H33.4968C33.6039 11.6495 33.5127 11.9174 33.2918 12.0283ZM39.6754 18.0312C39.6754 18.5087 39.289 18.896 38.8115 18.8979H38.4515C37.973 18.896 37.5867 18.5087 37.5848 18.0312V14.0409C37.5867 13.5624 37.974 13.1761 38.4515 13.1742V13.1714H38.8115C39.289 13.1733 39.6754 13.5605 39.6754 14.0381V18.0312Z" fill="url(#paint0_linear_8464_42340)"/>
<path fill-rule="evenodd" clip-rule="evenodd" d="M20.8896 19.5258C20.8191 18.8179 20.711 18.1148 20.5653 17.4183C20.1742 15.4133 19.3292 13.5257 18.094 11.8986C17.0046 10.4905 15.494 9.46682 13.7822 8.97614C12.0987 8.50426 10.3108 8.55878 8.6583 9.13218C6.97946 9.70746 5.5046 10.7612 4.41796 12.1646C4.16134 12.4993 4.04102 14.3793 4.04102 16.2358C4.04102 17.9278 4.151 19.6583 4.36532 20.2261C4.37848 20.2721 4.3954 20.3163 4.41702 20.3595C5.60988 22.0967 7.43066 23.3017 9.4949 23.72C11.311 24.1318 13.2107 23.9485 14.914 23.1974V36.2136H14.9008V37.8661C14.8003 41.675 21.0701 41.4832 20.9949 37.9112V36.5999H21.0108V21.8899C21.0033 21.0457 20.9648 20.2627 20.8896 19.5258ZM9.39902 18.0321C9.39902 18.5096 9.01268 18.8969 8.53516 18.8988H8.17514C7.69668 18.8969 7.31034 18.5096 7.30846 18.0321V14.0418C7.31034 13.5633 7.69762 13.177 8.17514 13.1751H8.17796H8.53798C9.01456 13.1789 9.39808 13.5662 9.39808 14.0418V18.0321H9.39902ZM16.7677 14.7167C16.5646 14.8173 16.3193 14.7506 16.1943 14.5616C15.8766 14.0033 15.4883 13.4881 15.0381 13.0294C14.6461 12.6252 14.1911 12.2878 13.6911 12.0293C13.4711 11.9165 13.3837 11.6457 13.4974 11.4258C13.6074 11.2115 13.8659 11.1231 14.084 11.2237H14.0868C14.6752 11.5264 15.211 11.923 15.6716 12.3987C16.1774 12.9129 16.6135 13.49 16.9707 14.1161C17.0807 14.3388 16.9895 14.6077 16.7677 14.7167Z" fill="url(#paint1_linear_8464_42340)"/>
</g>
</g>
<defs>
<linearGradient id="paint0_linear_8464_42340" x1="34.4734" y1="42.6136" x2="34.4734" y2="10.4713" gradientUnits="userSpaceOnUse">
<stop offset="0.0318" stop-color="#48AFFF"/>
<stop offset="1" stop-color="#48A3FF"/>
</linearGradient>
<linearGradient id="paint1_linear_8464_42340" x1="12.5276" y1="42.3444" x2="12.5276" y2="12.2823" gradientUnits="userSpaceOnUse">
<stop offset="0.0318" stop-color="#48AFFF"/>
<stop offset="1" stop-color="#48A3FF"/>
</linearGradient>
<clipPath id="clip0_8464_42340">
<rect width="47" height="48" fill="white" transform="translate(0 0.660156)"/>
</clipPath>
<clipPath id="clip1_8464_42340">
<rect width="47" height="48" fill="white" transform="translate(0 0.660156)"/>
</clipPath>
</defs>
</svg>
