<svg width="47" height="49" viewBox="0 0 47 49" fill="none" xmlns="http://www.w3.org/2000/svg">
<g clip-path="url(#clip0_8464_42351)">
<path d="M23.4628 44.4285C20.389 44.4285 17.3152 44.4379 14.232 44.4285C9.13715 44.4191 5.00115 40.3113 4.99175 35.2165C4.97295 29.3979 4.99175 23.5699 4.99175 17.7513C4.99175 16.8395 5.15155 16.6797 6.08215 16.6797C8.16895 16.6797 10.2558 16.6891 12.3332 16.6703C12.869 16.6609 13.2074 16.8301 13.48 17.3095C14.232 18.6443 15.4258 19.3117 16.9486 19.3117C21.329 19.3305 25.7 19.3305 30.0804 19.3117C31.6032 19.3023 32.7782 18.6255 33.5396 17.2907C33.784 16.8677 34.066 16.6609 34.5642 16.6703C36.7356 16.6891 38.8976 16.6797 41.069 16.6797C41.8209 16.6797 42.009 16.8771 42.009 17.6385C42.009 23.5229 42.0278 29.4073 41.9996 35.2917C41.9808 40.3207 37.8354 44.4097 32.8064 44.4191C29.695 44.4379 26.5742 44.4285 23.4628 44.4285Z" fill="#48AFFF"/>
<path d="M23.5186 5.26758C26.5736 5.26758 29.6286 5.26758 32.693 5.26758C37.487 5.27698 41.435 8.80198 41.9708 13.549C42.046 14.2164 41.7922 14.5266 41.1154 14.5266C38.9064 14.536 36.6974 14.5454 34.4884 14.5078C34.1876 14.4984 33.7834 14.2352 33.6236 13.9814C32.7682 12.5902 31.565 11.8852 29.9388 11.8852C25.643 11.8946 21.3472 11.8852 17.0514 11.8852C15.444 11.8852 14.222 12.562 13.4324 13.9626C13.1974 14.3762 12.8966 14.536 12.436 14.536C10.2646 14.5266 8.10264 14.536 5.93124 14.5266C5.21684 14.5266 4.95364 14.207 5.04764 13.5208C5.67744 8.67978 9.54084 5.26758 14.4194 5.26758C17.4462 5.26758 20.4824 5.26758 23.5186 5.26758Z" fill="#48AFFF"/>
<path d="M23.5756 14.5354C25.7188 14.5354 27.862 14.5354 30.0146 14.5354C30.6162 14.5354 31.058 14.7704 31.3118 15.3156C31.5468 15.8326 31.481 16.3684 31.058 16.735C30.8042 16.9606 30.4094 17.1486 30.071 17.158C25.7 17.1862 21.329 17.1862 16.958 17.1674C16.1402 17.1674 15.548 16.5564 15.5668 15.8138C15.5856 15.0994 16.1684 14.5448 16.9674 14.5354C19.167 14.526 21.376 14.5354 23.5756 14.5354Z" fill="#EF4A7B"/>
<path d="M33.1911 40.631H13.8083C10.7439 40.631 8.25293 38.14 8.25293 35.0756V27.7624C8.25293 24.698 10.7345 22.207 13.8083 22.207H33.1817C36.2461 22.207 38.7371 24.6886 38.7371 27.7624V35.0756C38.7371 38.14 36.2555 40.631 33.1911 40.631Z" fill="#008CF9"/>
</g>
<defs>
<clipPath id="clip0_8464_42351">
<rect width="47" height="48" fill="white" transform="translate(0 0.660156)"/>
</clipPath>
</defs>
</svg>
