<svg width="15" height="14" viewBox="0 0 15 14" fill="none" xmlns="http://www.w3.org/2000/svg">
<g clip-path="url(#clip0_420_8993)">
<path d="M14.6302 5.37048C14.5385 5.08699 14.2871 4.88565 13.9896 4.85884L9.94882 4.49193L8.35099 0.752041C8.23317 0.477956 7.96485 0.300537 7.66673 0.300537C7.36861 0.300537 7.1003 0.477956 6.98248 0.752682L5.38465 4.49193L1.34322 4.85884C1.04628 4.88629 0.795478 5.08699 0.703297 5.37048C0.611116 5.65396 0.696247 5.9649 0.920877 6.1609L3.97523 8.83959L3.07457 12.807C3.00867 13.0987 3.12189 13.4002 3.36393 13.5752C3.49403 13.6692 3.64624 13.717 3.79974 13.717C3.93208 13.717 4.06335 13.6814 4.18117 13.6109L7.66673 11.5277L11.151 13.6109C11.406 13.7643 11.7274 13.7503 11.9689 13.5752C12.211 13.3997 12.3242 13.0981 12.2583 12.807L11.3576 8.83959L14.4119 6.16144C14.6366 5.9649 14.7224 5.6545 14.6302 5.37048Z" fill="#E0E0E0"/>
</g>
<defs>
<clipPath id="clip0_420_8993">
<rect width="14" height="14" fill="white" transform="translate(0.666595)"/>
</clipPath>
</defs>
</svg>
