<svg width="47" height="49" viewBox="0 0 47 49" fill="none" xmlns="http://www.w3.org/2000/svg">
<g clip-path="url(#clip0_8464_42359)">
<g clip-path="url(#clip1_8464_42359)">
<path d="M42.9882 21.813V23.9542C42.9882 24.86 42.2588 25.6012 41.3411 25.6012C41.3058 25.6012 41.2705 25.6012 41.2352 25.6012C40.6353 29.6836 38.7294 33.3424 35.9529 36.1189C32.5764 39.4953 27.8823 41.6012 22.7176 41.6012C17.5529 41.6012 12.8705 39.5189 9.48231 36.1189C6.1176 32.7424 4.01172 28.06 4.01172 22.8953C4.01172 17.7306 6.10584 13.0483 9.49407 9.67181C12.8705 6.29534 17.5647 4.18945 22.7294 4.18945C27.8941 4.18945 32.5764 6.27181 35.9529 9.67181C38.7294 12.4483 40.6588 16.1071 41.2352 20.1895C41.2705 20.1895 41.3058 20.1895 41.3411 20.1895C42.247 20.1895 42.9882 20.9306 42.9882 21.813Z" fill="#48AFFF"/>
<path d="M41.2352 20.1895C40.647 16.1071 38.7294 12.4483 35.9529 9.67181C32.5764 6.29534 27.8823 4.18945 22.7176 4.18945C17.5529 4.18945 12.8823 6.28357 9.49407 9.68357C6.1176 13.06 4.01172 17.7542 4.01172 22.9189C4.01172 28.0836 6.10584 32.7659 9.49407 36.1542C12.8705 39.5306 17.5647 41.6365 22.7294 41.6365C27.8941 41.6365 32.5764 39.5424 35.9529 36.1306C38.7294 33.3542 40.6353 29.6953 41.2352 25.613C41.3764 24.7189 41.4352 23.813 41.4352 22.9071C41.4235 21.9777 41.3529 21.06 41.2352 20.1895ZM34.4117 34.5895C31.4235 37.5777 27.2941 39.4247 22.7294 39.4247C18.1647 39.4247 14.0352 37.5777 11.047 34.5895C8.05878 31.6012 6.21172 27.4718 6.21172 22.9071C6.21172 18.3424 8.05878 14.213 11.047 11.2247C14.0352 8.23651 18.1647 6.38945 22.7294 6.38945C27.2941 6.38945 31.4235 8.23651 34.4117 11.2247C37.4 14.213 39.247 18.3424 39.247 22.9071C39.247 27.4718 37.4 31.6012 34.4117 34.5895Z" fill="#FFF348"/>
<path fill-rule="evenodd" clip-rule="evenodd" d="M21.8351 21.9888C22.5528 21.3299 23.6704 21.3888 24.3293 22.1064C24.9881 22.8241 24.9293 23.9417 24.2116 24.6005C23.494 25.2594 22.3763 25.2005 21.7175 24.4829C21.0822 23.7535 21.1293 22.6358 21.8351 21.9888Z" fill="white"/>
<path d="M29.1176 19.2241C29.5647 18.8241 29.5882 18.1182 29.1882 17.6711C28.7882 17.2241 28.0823 17.2005 27.6353 17.6005L23.0941 21.7417L16.9176 14.9652C16.5176 14.5182 15.8117 14.4947 15.3647 14.8947C14.9176 15.2947 14.8941 16.0005 15.2941 16.4476L22.2 24.0241C22.6 24.4711 23.3058 24.4947 23.7529 24.0947L29.1176 19.2241Z" fill="white"/>
<path fill-rule="evenodd" clip-rule="evenodd" d="M42.9884 21.8131V23.9543C42.9884 24.8601 42.259 25.6013 41.3413 25.6013C41.3061 25.6013 41.2708 25.6013 41.2355 25.6013C40.8237 25.566 40.459 25.4013 40.1884 25.119C39.8943 24.8248 39.7061 24.4131 39.7061 23.9543V21.8131C39.7061 20.9425 40.3884 20.2366 41.2355 20.166C41.2708 20.166 41.3061 20.166 41.3413 20.166C42.2472 20.1895 42.9884 20.9307 42.9884 21.8131Z" fill="#FFF348"/>
<path d="M40.6705 39.2608L28.8705 46.2843C28.3646 46.5902 27.7176 46.4843 27.3294 46.0491C26.9882 45.6608 26.7646 45.1432 26.7646 44.5549V31.3785C26.7646 30.6961 27.0588 30.0843 27.5294 29.6961C28.0117 29.2843 28.7176 29.2373 29.2588 29.5785L40.6588 36.6255C40.6705 36.6373 40.6823 36.6491 40.7058 36.6491C40.9294 36.7432 43.1529 37.7785 40.6705 39.2608Z" fill="url(#paint0_linear_8464_42359)" stroke="white" stroke-width="1.18349" stroke-miterlimit="10"/>
</g>
</g>
<defs>
<linearGradient id="paint0_linear_8464_42359" x1="34.2972" y1="49.3008" x2="34.2972" y2="31.3581" gradientUnits="userSpaceOnUse">
<stop offset="5.5409e-07" stop-color="#F90390"/>
</linearGradient>
<clipPath id="clip0_8464_42359">
<rect width="47" height="48" fill="white" transform="translate(0 0.660156)"/>
</clipPath>
<clipPath id="clip1_8464_42359">
<rect width="47" height="46.5412" fill="white" transform="translate(0 1.38867)"/>
</clipPath>
</defs>
</svg>
